<svg id="Calque_1" data-name="Calque 1" xmlns="http://www.w3.org/2000/svg" viewBox="0 0 35 35"><defs><style>.cls-1{fill:#00e5f3;}</style></defs><title>Plan de travail 1</title><path class="cls-1" d="M24.24,17.5a6.08,6.08,0,0,1,1.43-3.93l8.17-8.25a2.94,2.94,0,0,0-4.16-4.16l-7.31,7.3h0a6.57,6.57,0,0,1-9.65,0L5.32,1.16A2.94,2.94,0,0,0,1.16,5.32h0l7.92,7.92H9a6.12,6.12,0,0,1-.5,9L1.16,29.68a2.94,2.94,0,0,0,4.16,4.16l7.6-7.6h0a6.28,6.28,0,0,1,9.38.25l7.35,7.35a2.94,2.94,0,0,0,4.16-4.16l-8.17-8.25a6.07,6.07,0,0,1-1.43-3.93"/><path class="cls-1" d="M33.87,21.73a.86.86,0,0,1-.58-.24l-3.4-3.41a.82.82,0,0,1,0-1.16l3.4-3.41a.82.82,0,0,1,1.16.06.8.8,0,0,1,0,1.1L31.62,17.5l2.83,2.83a.82.82,0,0,1-.58,1.4m-32.59,0a.83.83,0,0,1-.82-.82.79.79,0,0,1,.25-.58L3.54,17.5.71,14.67a.81.81,0,0,1,.05-1.16.83.83,0,0,1,1.1,0l3.41,3.41a.82.82,0,0,1,0,1.16L1.86,21.49a.83.83,0,0,1-.58.24"/></svg>